STARTFONT 2.1
FONT -gbdfed-monument-Normal-R-Normal--7-70-20-20-M-5-FontSpecific-0
SIZE 7 20 20
FONTBOUNDINGBOX 4 5 0 0
STARTPROPERTIES 11
POINT_SIZE 70
PIXEL_SIZE 7
RESOLUTION_X 20
RESOLUTION_Y 20
FONT_ASCENT 5
FONT_DESCENT 2
AVERAGE_WIDTH 5
SPACING "M"
FAMILY_NAME "monument"
WEIGHT_NAME "Normal"
_GBDFED_INFO "Edited with gbdfed 1.6."
ENDPROPERTIES
CHARS 41
STARTCHAR char32
ENCODING 32
SWIDTH 2057 0
DWIDTH 4 0
BBX 0 0 0 0
BITMAP
ENDCHAR
STARTCHAR char37
ENCODING 37
SWIDTH 2057 0
DWIDTH 4 0
BBX 4 5 0 0
BITMAP
90
30
60
C0
90
ENDCHAR
STARTCHAR char42
ENCODING 42
SWIDTH 2057 0
DWIDTH 4 0
BBX 4 5 0 0
BITMAP
90
60
F0
60
90
ENDCHAR
STARTCHAR char46
ENCODING 46
SWIDTH 2057 0
DWIDTH 4 0
BBX 2 2 1 1
BITMAP
C0
C0
ENDCHAR
STARTCHAR char47
ENCODING 47
SWIDTH 2057 0
DWIDTH 4 0
BBX 4 5 0 0
BITMAP
10
30
60
C0
80
ENDCHAR
STARTCHAR char48
ENCODING 48
SWIDTH 2057 0
DWIDTH 4 0
BBX 4 5 0 0
BITMAP
F0
D0
D0
D0
F0
ENDCHAR
STARTCHAR char49
ENCODING 49
SWIDTH 2057 0
DWIDTH 4 0
BBX 4 5 0 0
BITMAP
60
E0
60
60
F0
ENDCHAR
STARTCHAR char50
ENCODING 50
SWIDTH 2057 0
DWIDTH 4 0
BBX 4 5 0 0
BITMAP
F0
30
F0
C0
F0
ENDCHAR
STARTCHAR char51
ENCODING 51
SWIDTH 2057 0
DWIDTH 4 0
BBX 4 5 0 0
BITMAP
F0
30
F0
30
F0
ENDCHAR
STARTCHAR char52
ENCODING 52
SWIDTH 2057 0
DWIDTH 4 0
BBX 4 5 0 0
BITMAP
B0
B0
F0
30
30
ENDCHAR
STARTCHAR char53
ENCODING 53
SWIDTH 2057 0
DWIDTH 4 0
BBX 4 5 0 0
BITMAP
F0
C0
F0
30
F0
ENDCHAR
STARTCHAR char54
ENCODING 54
SWIDTH 2057 0
DWIDTH 4 0
BBX 4 5 0 0
BITMAP
F0
C0
F0
D0
F0
ENDCHAR
STARTCHAR char55
ENCODING 55
SWIDTH 2057 0
DWIDTH 4 0
BBX 4 5 0 0
BITMAP
F0
30
30
30
30
ENDCHAR
STARTCHAR char56
ENCODING 56
SWIDTH 2057 0
DWIDTH 4 0
BBX 4 5 0 0
BITMAP
F0
B0
F0
B0
F0
ENDCHAR
STARTCHAR char57
ENCODING 57
SWIDTH 2057 0
DWIDTH 4 0
BBX 4 5 0 0
BITMAP
F0
B0
F0
30
F0
ENDCHAR
STARTCHAR char65
ENCODING 65
SWIDTH 2057 0
DWIDTH 4 0
BBX 4 5 0 0
BITMAP
70
B0
F0
B0
B0
ENDCHAR
STARTCHAR char66
ENCODING 66
SWIDTH 2057 0
DWIDTH 4 0
BBX 4 5 0 0
BITMAP
E0
D0
F0
D0
F0
ENDCHAR
STARTCHAR char67
ENCODING 67
SWIDTH 2057 0
DWIDTH 4 0
BBX 4 5 0 0
BITMAP
70
C0
C0
C0
F0
ENDCHAR
STARTCHAR char68
ENCODING 68
SWIDTH 2057 0
DWIDTH 4 0
BBX 4 5 0 0
BITMAP
E0
D0
D0
D0
F0
ENDCHAR
STARTCHAR char69
ENCODING 69
SWIDTH 2057 0
DWIDTH 4 0
BBX 4 5 0 0
BITMAP
F0
C0
E0
C0
F0
ENDCHAR
STARTCHAR char70
ENCODING 70
SWIDTH 2057 0
DWIDTH 4 0
BBX 4 5 0 0
BITMAP
F0
C0
F0
C0
C0
ENDCHAR
STARTCHAR char71
ENCODING 71
SWIDTH 2057 0
DWIDTH 4 0
BBX 4 5 0 0
BITMAP
70
C0
D0
D0
F0
ENDCHAR
STARTCHAR char72
ENCODING 72
SWIDTH 2057 0
DWIDTH 4 0
BBX 4 5 0 0
BITMAP
D0
D0
F0
D0
D0
ENDCHAR
STARTCHAR char73
ENCODING 73
SWIDTH 2057 0
DWIDTH 4 0
BBX 4 5 0 0
BITMAP
F0
60
60
60
F0
ENDCHAR
STARTCHAR char74
ENCODING 74
SWIDTH 2057 0
DWIDTH 4 0
BBX 4 5 0 0
BITMAP
F0
30
30
B0
70
ENDCHAR
STARTCHAR char75
ENCODING 75
SWIDTH 2057 0
DWIDTH 4 0
BBX 4 5 0 0
BITMAP
D0
D0
E0
D0
D0
ENDCHAR
STARTCHAR char76
ENCODING 76
SWIDTH 2057 0
DWIDTH 4 0
BBX 4 5 0 0
BITMAP
C0
C0
C0
C0
F0
ENDCHAR
STARTCHAR char77
ENCODING 77
SWIDTH 2057 0
DWIDTH 4 0
BBX 4 5 0 0
BITMAP
50
F0
F0
D0
D0
ENDCHAR
STARTCHAR char78
ENCODING 78
SWIDTH 2057 0
DWIDTH 4 0
BBX 4 5 0 0
BITMAP
90
D0
F0
B0
90
ENDCHAR
STARTCHAR char79
ENCODING 79
SWIDTH 2057 0
DWIDTH 4 0
BBX 4 5 0 0
BITMAP
70
D0
D0
D0
F0
ENDCHAR
STARTCHAR char80
ENCODING 80
SWIDTH 2057 0
DWIDTH 4 0
BBX 4 5 0 0
BITMAP
E0
D0
F0
C0
C0
ENDCHAR
STARTCHAR char81
ENCODING 81
SWIDTH 2057 0
DWIDTH 4 0
BBX 4 5 0 0
BITMAP
70
D0
D0
E0
30
ENDCHAR
STARTCHAR char82
ENCODING 82
SWIDTH 2057 0
DWIDTH 4 0
BBX 4 5 0 0
BITMAP
E0
D0
F0
E0
D0
ENDCHAR
STARTCHAR char83
ENCODING 83
SWIDTH 2057 0
DWIDTH 4 0
BBX 4 5 0 0
BITMAP
70
C0
F0
30
F0
ENDCHAR
STARTCHAR char84
ENCODING 84
SWIDTH 2057 0
DWIDTH 4 0
BBX 4 5 0 0
BITMAP
F0
60
60
60
60
ENDCHAR
STARTCHAR char85
ENCODING 85
SWIDTH 2057 0
DWIDTH 4 0
BBX 4 5 0 0
BITMAP
B0
B0
B0
B0
E0
ENDCHAR
STARTCHAR char86
ENCODING 86
SWIDTH 2057 0
DWIDTH 4 0
BBX 4 5 0 0
BITMAP
B0
B0
B0
60
40
ENDCHAR
STARTCHAR char87
ENCODING 87
SWIDTH 2057 0
DWIDTH 4 0
BBX 4 5 0 0
BITMAP
B0
B0
F0
F0
A0
ENDCHAR
STARTCHAR char88
ENCODING 88
SWIDTH 2057 0
DWIDTH 4 0
BBX 4 5 0 0
BITMAP
B0
B0
60
D0
D0
ENDCHAR
STARTCHAR char89
ENCODING 89
SWIDTH 2057 0
DWIDTH 4 0
BBX 4 5 0 0
BITMAP
B0
B0
60
60
60
ENDCHAR
STARTCHAR char90
ENCODING 90
SWIDTH 2057 0
DWIDTH 4 0
BBX 4 5 0 0
BITMAP
F0
30
60
C0
F0
ENDCHAR
ENDFONT
